<svg width="247" height="74" viewBox="0 0 247 74" fill="none" xmlns="http://www.w3.org/2000/svg">
<path d="M238.967 29.8564C243.396 29.8564 247 25.8232 247 20.8671V9.62451C247 4.66843 243.396 0.635242 238.967 0.635242H207.505C205.534 0.635242 203.649 1.46226 202.193 2.89455C198.096 0.970842 193.576 0 188.724 0C183.39 0 178.646 1.33641 174.806 3.90134C173.312 1.89374 171.063 0.635242 168.626 0.635242H140.147C139.654 0.635242 139.161 0.689178 138.663 0.79705C138.165 0.689178 137.673 0.635242 137.18 0.635242H108.701C108.61 0.635242 108.519 0.635243 108.438 0.647228L94.6111 0.683186C94.5736 0.683186 94.5415 0.683186 94.504 0.683186H81.9406C79.5736 0.683186 77.3512 1.85179 75.841 3.82943C74.3308 1.85778 72.103 0.683186 69.7414 0.683186H8.05429C3.6255 0.683186 0.0214215 4.71637 0.0214215 9.67245V52.2277C0.0214215 52.7131 0.0589077 53.1985 0.133881 53.6899C0.0481972 54.2233 0 54.7566 0 55.29V64.1594C0 69.541 3.70583 73.9218 8.25243 73.9218H238.619C242.105 73.9218 245.217 71.3029 246.363 67.4075C246.796 65.9333 246.775 64.2793 246.331 62.793C246.673 61.5645 246.845 60.2701 246.845 58.9456C246.845 52.3355 242.705 47.2176 236.986 46.4086V29.8564H238.967Z" fill="#FBFCFD"/>
<path d="M238.967 26.8599C241.923 26.8599 244.322 24.181 244.322 20.867V9.62443C244.322 6.31638 241.923 3.63158 238.967 3.63158H207.505C205.55 3.63158 203.847 4.81217 202.91 6.56208C198.728 4.21289 193.919 2.99634 188.724 2.99634C182.186 2.99634 177.275 5.11181 173.847 8.31799C173.317 5.63918 171.18 3.63158 168.626 3.63158H140.147C139.633 3.63158 139.135 3.72147 138.663 3.8713C138.192 3.72147 137.694 3.63158 137.18 3.63158H108.701C108.637 3.63158 108.578 3.63757 108.513 3.64357L94.6165 3.67952H81.9407C79.9967 3.67952 78.2081 4.86011 77.2602 6.75385L75.8517 9.58248L74.3951 6.7119C73.4419 4.84214 71.6639 3.67952 69.7414 3.67952H8.05434C5.09824 3.67952 2.69909 6.36432 2.69909 9.67237V52.2276C2.69909 52.743 2.76336 53.2344 2.87046 53.7138C2.74729 54.2172 2.67767 54.7446 2.67767 55.2899V63.2304H2.70981C2.70981 63.2304 2.67767 63.2484 2.67767 63.2724V64.1593C2.67767 67.8989 5.17322 70.9253 8.25248 70.9253H78.7811C78.7811 70.9253 78.7918 70.9253 78.7971 70.9253C78.7971 70.9253 78.7971 70.9253 78.7918 70.9253H80.6875C80.6875 70.9253 80.6822 70.9193 80.6768 70.9133C80.6822 70.9193 80.6929 70.9253 80.6982 70.9253H238.614C241.018 70.9253 243.053 69.0615 243.814 66.4726C244.124 65.4178 244.023 64.2492 243.61 63.2484C243.61 63.2484 243.594 63.2244 243.583 63.2244H243.599C243.599 63.2244 243.599 63.2065 243.599 63.2005L243.45 62.8769C243.921 61.6723 244.172 60.3359 244.172 58.9396C244.172 53.4381 240.397 49.2911 235.395 49.2911H234.313V26.8539H238.973L238.967 26.8599Z" fill="#050606"/>
<path d="M137.18 20.3576V9.63037H108.701V52.2335H120.07V36.0708H136.784V25.3436H120.07V20.3576H137.18Z" fill="#F47820"/>
<path d="M168.626 20.3576V9.63037H140.147V52.2335H168.626V41.5003H151.516V36.0708H168.23V25.3436H151.516V20.3576H168.626Z" fill="#F47820"/>
<path d="M190.186 25.08C186.191 24.319 184.67 23.7377 184.67 22.0776C184.67 20.9929 185.286 19.8423 188.103 19.8423C191.086 19.8423 195.306 21.2446 198.573 24.0613L204.651 14.9282C200.377 10.9669 194.856 8.98926 188.724 8.98926C178.421 8.98926 173.13 15.5694 173.13 22.7848C173.13 33.4521 182.582 35.1121 188.778 36.3885C192.489 37.1556 194.069 37.9886 194.069 39.6487C194.069 41.3087 192.044 42.1417 189.908 42.1417C184.842 42.1417 180.622 39.7146 177.805 36.6462L171.893 46.2288C175.888 50.3159 181.345 53.0007 189.34 53.0007C199.413 53.0007 205.545 47.5712 205.545 38.1864C205.545 28.8016 196.372 26.3026 190.181 25.092L190.186 25.08Z" fill="#F47820"/>
<path d="M207.505 9.62451V20.8671H217.584V52.2276H228.953V20.8671H238.967V9.62451H207.505Z" fill="#F47820"/>
<path d="M15.0108 60.4499C15.9372 60.2222 16.6388 59.3292 16.6388 58.0048C16.6388 56.7583 15.7819 55.29 13.8166 55.29H8.0329V65.9453H14.0147C15.9265 65.9453 16.8262 64.537 16.8262 63.0508C16.8262 61.6784 16.039 60.6237 15.0108 60.4499ZM10.9194 57.9089H13.1472C13.4471 57.9089 13.7148 58.1966 13.7148 58.5681C13.7148 58.9397 13.4471 59.2513 13.1472 59.2513H10.9194V57.9089ZM13.2275 63.3204H10.914V61.8642H13.2275C13.6398 61.8642 13.8969 62.2178 13.8969 62.6013C13.8969 62.9849 13.6398 63.3204 13.2275 63.3204Z" fill="#FBFCFD"/>
<path d="M24.7733 62.1698C25.5338 61.7563 26.487 60.7795 26.487 58.9457C26.487 56.9501 25.2874 55.29 23.0597 55.29H17.9775V65.9453H20.864V62.5234H21.9029L23.215 65.9453H26.4977L24.7733 62.1758V62.1698ZM22.6205 59.8386H20.8694V57.9688H22.6205C23.1079 57.9688 23.5631 58.3224 23.5631 58.8977C23.5631 59.473 23.1079 59.8386 22.6205 59.8386Z" fill="#FBFCFD"/>
<path d="M27.6599 55.29V65.9453H30.541V55.29H27.6599Z" fill="#FBFCFD"/>
<path d="M38.3597 55.29V60.6536L35.0501 55.29H32.0833V65.9453H34.9644V60.2281L38.4775 65.9453H41.2461V55.29H38.3597Z" fill="#FBFCFD"/>
<path d="M47.2225 59.6949V62.3497H49.0647V62.8112C48.6952 63.1168 48.1222 63.2906 47.5117 63.2906C46.1301 63.2906 45.1983 62.11 45.1983 60.6238C45.1983 59.1375 46.1247 57.957 47.5117 57.957C48.3257 57.957 48.9523 58.4663 49.2682 59.1196L51.6942 57.7292C51.0355 56.3569 49.7234 55.1104 47.5117 55.1104C44.6252 55.1104 42.2743 57.2078 42.2743 60.6178C42.2743 64.0277 44.6252 66.1312 47.5117 66.1312C49.3807 66.1312 50.8052 65.2802 51.8655 63.9738V59.6949H47.2225Z" fill="#FBFCFD"/>
<path d="M53.1508 55.29V65.9453H56.0319V55.29H53.1508Z" fill="#FBFCFD"/>
<path d="M63.8506 55.29V60.6536L60.541 55.29H57.5742V65.9453H60.4607V60.2281L63.9737 65.9453H66.7424V55.29H63.8559H63.8506Z" fill="#FBFCFD"/>
<path d="M72.7136 59.6949V62.3497H74.5558V62.8112C74.1863 63.1168 73.6132 63.2906 73.0027 63.2906C71.6211 63.2906 70.6893 62.11 70.6893 60.6238C70.6893 59.1375 71.6211 57.957 73.0027 57.957C73.8167 57.957 74.4433 58.4663 74.7593 59.1196L77.1852 57.7292C76.5265 56.3569 75.2145 55.1104 73.0027 55.1104C70.1216 55.1104 67.7653 57.2078 67.7653 60.6178C67.7653 64.0277 70.1216 66.1312 73.0027 66.1312C74.8717 66.1312 76.2962 65.2802 77.3512 63.9738V59.6949H72.7136Z" fill="#FBFCFD"/>
<path d="M81.7639 55.29V58.1007H84.3237V65.9453H87.2048V58.1007H89.7486V55.29H81.7693H81.7639Z" fill="#FBFCFD"/>
<path d="M97.0638 55.29V59.0595H93.6525V55.29H90.7714V65.9453H93.6525V61.8702H97.0638V65.9453H99.945V55.29H97.0638Z" fill="#FBFCFD"/>
<path d="M108.711 57.9688V55.29H101.487V65.9453H108.711V63.2605H104.368V61.9001H108.61V59.2154H104.368V57.9688H108.711Z" fill="#FBFCFD"/>
<path d="M113.119 55.29V58.1007H115.673V65.9453H118.554V58.1007H121.093V55.29H113.119Z" fill="#FBFCFD"/>
<path d="M128.917 62.1698C129.672 61.7563 130.63 60.7795 130.63 58.9457C130.63 56.9501 129.431 55.29 127.203 55.29H122.121V65.9453H125.007V62.5234H126.046L127.358 65.9453H130.641L128.917 62.1758V62.1698ZM126.764 59.8386H125.013V57.9688H126.764C127.246 57.9688 127.706 58.3224 127.706 58.8977C127.706 59.473 127.246 59.8386 126.764 59.8386Z" fill="#FBFCFD"/>
<path d="M137.908 55.29H134.283L130.775 65.9453H133.897L134.272 64.573H137.924L138.299 65.9453H141.421L137.914 55.29H137.908ZM135.011 61.8822L136.098 58.1307L137.18 61.8822H135.011Z" fill="#FBFCFD"/>
<path d="M146.187 55.29H141.935V65.9453H146.204C149.186 65.9453 151.409 64.0096 151.409 60.6117C151.409 57.2137 149.186 55.29 146.187 55.29ZM146.187 63.1287H144.817V58.0947H146.204C147.746 58.0947 148.485 59.1674 148.485 60.6057C148.485 61.9481 147.628 63.1287 146.187 63.1287Z" fill="#FBFCFD"/>
<path d="M159.661 57.9688V55.29H152.442V65.9453H159.661V63.2605H155.324V61.9001H159.56V59.2154H155.324V57.9688H159.661Z" fill="#FBFCFD"/>
<path d="M164.069 55.29V58.1007H166.623V65.9453H169.51V58.1007H172.048V55.29H164.069Z" fill="#FBFCFD"/>
<path d="M177.484 55.1104C174.549 55.1104 172.273 57.3517 172.273 60.6178C172.273 63.8839 174.544 66.1312 177.484 66.1312C180.424 66.1312 182.694 63.8959 182.694 60.6178C182.694 57.3397 180.424 55.1104 177.484 55.1104ZM177.484 63.2906C176.102 63.2906 175.202 62.11 175.202 60.6238C175.202 59.1375 176.102 57.957 177.484 57.957C178.865 57.957 179.77 59.1375 179.77 60.6238C179.77 62.11 178.871 63.2906 177.484 63.2906Z" fill="#FBFCFD"/>
<path d="M188.162 59.6949V62.3497H189.999V62.8112C189.629 63.1168 189.056 63.2906 188.446 63.2906C187.064 63.2906 186.132 62.11 186.132 60.6238C186.132 59.1375 187.059 57.957 188.446 57.957C189.26 57.957 189.886 58.4663 190.202 59.1196L192.628 57.7292C191.969 56.3569 190.657 55.1104 188.446 55.1104C185.565 55.1104 183.208 57.2078 183.208 60.6178C183.208 64.0277 185.565 66.1312 188.446 66.1312C190.315 66.1312 191.739 65.2802 192.8 63.9738V59.6949H188.162Z" fill="#FBFCFD"/>
<path d="M201.309 57.9688V55.29H194.085V65.9453H201.309V63.2605H196.966V61.9001H201.207V59.2154H196.966V57.9688H201.309Z" fill="#FBFCFD"/>
<path d="M202.075 55.29V58.1007H204.629V65.9453H207.51V58.1007H210.049V55.29H202.069H202.075Z" fill="#FBFCFD"/>
<path d="M217.375 55.29V59.0595H213.964V55.29H211.082V65.9453H213.964V61.8702H217.375V65.9453H220.256V55.29H217.375Z" fill="#FBFCFD"/>
<path d="M229.022 57.9688V55.29H221.798V65.9453H229.022V63.2605H224.679V61.9001H228.921V59.2154H224.679V57.9688H229.022Z" fill="#FBFCFD"/>
<path d="M237.098 62.1698C237.859 61.7563 238.812 60.7795 238.812 58.9457C238.812 56.9501 237.612 55.29 235.384 55.29H230.302V65.9453H233.189V62.5234H234.228L235.545 65.9453H238.823L237.093 62.1758L237.098 62.1698ZM234.945 59.8386H233.189V57.9688H234.945C235.427 57.9688 235.883 58.3224 235.883 58.8977C235.883 59.473 235.427 59.8386 234.945 59.8386Z" fill="#FBFCFD"/>
<path d="M19.5734 20.3936V25.3676H36.5067V36.0888H19.5734V52.2336H8.05963V9.67236H36.9083V20.3936H19.5788H19.5734Z" fill="#FBFCFD"/>
<path d="M52.444 9.67236H40.9302V52.2276H52.444V9.67236Z" fill="#FBFCFD"/>
<path d="M96.4213 52.2276H82.8564L75.9 39.2111L68.9489 52.2276H55.3787L68.092 30.4076L56.2355 9.67236H69.7521L75.9053 21.7959L81.9514 9.67236H95.5805L83.7186 30.3417L96.432 52.2276H96.4213Z" fill="#FBFCFD"/>
<path d="M90.1181 30.3836C90.1181 32.0556 89.5933 33.5958 88.7204 34.8123L87.1995 32.1875C87.4298 31.6361 87.569 31.0249 87.569 30.3836C87.569 29.7424 87.4298 29.1071 87.1888 28.5498L88.699 25.9189C89.5879 27.1355 90.1181 28.6876 90.1181 30.3776V30.3836Z" fill="#FBFCFD"/>
<path d="M101.123 30.3838C101.123 36.3886 98.6704 41.7642 94.8254 45.3179L93.4223 42.9028C96.5712 39.8705 98.5687 35.3818 98.5687 30.3838C98.5687 25.3857 96.5444 20.8372 93.358 17.8048L94.745 15.3777C98.6329 18.9314 101.123 24.343 101.123 30.3838Z" fill="#FBFCFD"/>
<path d="M95.4412 30.3836C95.4412 34.1531 93.9953 37.5571 91.6979 39.9362L90.2787 37.4971C91.8906 35.6633 92.8867 33.1523 92.8867 30.3836C92.8867 27.6149 91.8799 25.062 90.2466 23.2282L91.6497 20.7771C93.9792 23.1623 95.4412 26.5842 95.4412 30.3836Z" fill="#FBFCFD"/>
</svg>
