<svg width="143" height="49" viewBox="0 0 143 49" fill="none" xmlns="http://www.w3.org/2000/svg">
<g style="mix-blend-mode:luminosity" clip-path="url(#clip0_25_214)">
<path d="M0 47.81V44.977H2.194V29.77H0V26.937H7.608C11.494 26.937 15.382 28.556 15.382 33.528C15.382 38.558 11.634 40.12 8.329 40.12H5.803V44.977H8.357V47.811L0 47.81ZM5.803 37.287H6.719C6.997 37.287 11.773 37.837 11.773 33.528C11.773 29.193 7.218 29.712 6.636 29.712H5.803V37.287ZM19.102 37.402C19.102 31.36 23.572 26.474 29.625 26.474C35.678 26.474 40.175 31.36 40.175 37.402C40.175 43.561 35.345 48.272 29.625 48.272C22.295 48.272 19.102 42.433 19.102 37.402ZM22.712 37.807C22.712 41.711 25.682 44.804 29.43 44.804C33.568 44.804 36.566 41.508 36.566 37.258C36.566 33.24 33.623 29.943 29.736 29.943C25.322 29.943 22.712 33.384 22.712 37.807ZM43.784 47.81V44.977H45.895V29.77H43.785V26.937H51.559V29.77H49.504V44.977H51.559V47.811L43.784 47.81ZM60.332 31.91H60.276V44.977H62.526V47.81H55.085V44.977H56.945V29.77H55.085V26.938H61.665L68.05 39.802H68.106V29.77H66.051V26.938H73.521V29.77H71.438V47.81H68.523L60.332 31.91ZM77.019 32.777V26.937H92.067V32.777H88.873V29.771H86.348V44.977H88.762V47.811H80.322V44.977H82.738V29.771H80.211V32.777H77.019ZM119.296 0.953003L95.67 25.554H101.54V47.81H137.053V25.554H142.923L119.296 0.953003ZM134.818 45.647H123.13L124.582 44.136L119.295 38.632L114.009 44.136L115.461 45.647H103.774V33.477L105.226 34.99L110.512 29.485V18.477H107.609L119.295 6.307L130.982 18.477H128.079V29.485L133.365 34.99L134.817 33.478V45.648L134.818 45.647Z" fill="black"/>
<path d="M110.513 29.485L119.297 38.631L128.08 29.485H110.513ZM0 6.79801V0.958014H15.048V6.79801H11.855V3.79101H9.33V18.998H11.746V21.832H3.304V18.998H5.719V3.79101H3.193V6.79801H0ZM17.075 21.832V18.998H19.213V3.79101H17.075V0.958014H25.682C27.042 0.958014 29.986 0.727014 31.874 3.32801C32.79 4.54301 32.762 5.84401 32.762 6.16201C32.762 8.59101 31.735 9.97801 29.624 10.903V10.96C31.901 11.54 32.096 13.014 32.096 14.286V18.998H34.039V21.832H28.486V14.517C28.486 12.551 26.459 12.349 24.988 12.349H22.822V18.999H25.044V21.832H17.075ZM22.822 9.51501H25.155C27.153 9.51501 29.152 9.16901 29.152 6.36501C29.152 3.79101 26.626 3.79101 24.738 3.79101H22.822V9.51501ZM35.594 21.832V18.998H37.232L42.229 3.79101H40.036V0.958014H50.393V3.79001H48.227L53.086 18.997H54.612V21.831H47.228V18.997H49.42L48.06 14.921H41.98L40.62 18.997H42.785V21.831H35.594V21.832ZM47.366 12.089L45.116 5.03401H45.061L42.757 12.089H47.366ZM58.305 3.79101H56.166V0.958014H63.302C68.134 0.958014 69.827 2.60601 70.743 3.24201C71.493 3.76201 74.52 6.65301 74.52 11.655C74.52 15.558 72.02 18.391 71.41 18.882C69.3 20.589 67.606 21.832 63.108 21.832H56.166V18.998H58.305V3.79101ZM61.915 19.056H63.941C68.967 19.056 70.91 15.095 70.91 11.336C70.91 7.98401 69.133 3.79101 63.664 3.79101H61.914L61.915 19.056ZM76.49 21.832V18.998H78.629V3.79101H76.49V0.958014H91.928V6.48001H88.735V3.79001H82.237V9.05201H87.818V12.348H82.238V18.998H88.735V15.586H91.928V21.831L76.49 21.832Z" fill="black"/>
</g>
<defs>
<clipPath id="clip0_25_214">
<rect width="143" height="48" fill="white" transform="translate(0 0.5)"/>
</clipPath>
</defs>
</svg>
