<svg width="202" height="69" viewBox="0 0 202 69" fill="none" xmlns="http://www.w3.org/2000/svg">
<g style="mix-blend-mode:luminosity" clip-path="url(#clip0_25_196)">
<path d="M77.0554 45.8757C74.4789 45.8757 72.5202 45.1298 71.1794 43.6379C69.8385 42.146 69.1685 40.0059 69.1694 37.2178C69.1694 34.3765 69.8702 32.1926 71.272 30.6659C72.6737 29.1392 74.6983 28.3766 77.3457 28.3783C79.0247 28.3816 80.6823 28.7526 82.2005 29.4649L80.1492 31.8768C78.6837 31.4292 78.3132 31.3795 77.3182 31.3795C74.3712 31.3795 72.8973 33.3189 72.8965 37.1979C72.8965 39.0901 73.264 40.5128 73.9991 41.4659C74.7342 42.4191 75.808 42.8919 77.2206 42.8845C78.8234 42.887 80.3995 42.4767 81.795 41.6934V44.8239C81.1512 45.1993 80.4524 45.4723 79.7237 45.6333C78.8442 45.8115 77.9479 45.8948 77.0504 45.8819" fill="#EB1F40"/>
<path d="M87.2192 27.3725C87.3581 27.227 87.4783 27.1238 87.6097 26.9908V21.8127L84.0215 23.4712V31.1407C84.1341 30.999 84.2543 30.8498 84.3632 30.7168C85.6239 29.1669 86.5759 28.0521 87.2192 27.3725Z" fill="#EB1F40"/>
<path d="M92.0289 35.9372L98.8836 28.6841H94.711L89.5658 34.1195L87.5171 36.6545H87.4244L87.6097 33.4022V32.4934L84.0215 36.6023V45.5723H87.6097V39.785L89.5959 38.1663L95.0639 45.5723H99.3154L92.0289 35.9372Z" fill="#EB1F40"/>
<path d="M28.3126 26.0571C26.1966 26.0571 24.5329 26.8006 23.3214 28.2875C22.1099 29.7744 21.5041 31.8245 21.5041 34.4378C21.5041 37.1729 22.0882 39.245 23.2563 40.654C24.4244 42.063 26.1098 42.7675 28.3126 42.7675C29.244 42.7698 30.1731 42.6752 31.0847 42.4853C31.9767 42.2964 32.9057 42.0543 33.8719 41.7593V44.8811C32.1056 45.5441 30.1031 45.8756 27.8645 45.8756C24.5679 45.8756 22.0365 44.886 20.2701 42.9068C18.5038 40.9275 17.621 38.095 17.6218 34.4092C17.6218 32.0885 18.0507 30.0579 18.9084 28.3173C19.7078 26.6377 21.0059 25.2415 22.628 24.3166C24.25 23.3899 26.1545 22.927 28.3413 22.9279C30.5524 22.9063 32.7379 23.3976 34.7242 24.3626L33.3951 27.4011C32.6132 27.036 31.808 26.7224 30.9846 26.4624C30.1206 26.1898 29.2191 26.053 28.3126 26.0571Z" fill="#EB1F40"/>
<path d="M50.9731 45.5723H47.3436V35.1838C47.3436 33.8808 47.0791 32.9086 46.5501 32.2671C46.0211 31.6256 45.1822 31.3053 44.0332 31.3061C42.513 31.3061 41.3962 31.7561 40.6828 32.6563C39.9695 33.5564 39.6124 35.0657 39.6115 37.1841V45.5673H35.9858V23.4712L39.6053 21.8127V27.8486C39.6025 28.8831 39.5419 29.9165 39.4238 30.9443H39.6553C40.1457 30.1315 40.8589 29.4743 41.7116 29.0496C42.5885 28.6029 43.6127 28.3791 44.7842 28.3783C48.9118 28.3783 50.976 30.44 50.9768 34.5634L50.9731 45.5723Z" fill="#EB1F40"/>
<path d="M60.3046 31.096C59.154 31.096 58.2329 31.4574 57.5412 32.1801C56.8495 32.9029 56.4361 33.9567 56.3009 35.3417H64.033C64.0121 33.9468 63.6734 32.8904 63.0167 32.1727C62.3601 31.4549 61.456 31.096 60.3046 31.096ZM60.9679 45.8757C58.3188 45.8757 56.2471 45.1099 54.7528 43.5782C53.2584 42.0465 52.5112 39.9367 52.5112 37.2488C52.5112 34.4905 53.2042 32.3223 54.5901 30.7442C55.9759 29.1661 57.8808 28.3787 60.3046 28.382C62.5574 28.382 64.3342 29.0592 65.635 30.4135C66.9357 31.7678 67.5878 33.6327 67.5911 36.0081V37.9475H56.2383C56.2909 39.5861 56.7381 40.846 57.58 41.727C58.4219 42.608 59.6075 43.0482 61.1369 43.0473C62.0838 43.0513 63.0284 42.9533 63.9541 42.7552C64.9153 42.5357 65.8519 42.2212 66.7501 41.8165V44.7319C65.8985 45.139 64.998 45.4365 64.0705 45.6171C63.0469 45.8003 62.008 45.8869 60.9679 45.8757Z" fill="#EB1F40"/>
<path d="M105.435 43.005C106.748 43.005 107.803 42.6412 108.599 41.9135C109.396 41.1857 109.794 40.165 109.793 38.8513V37.3868L107.607 37.4776C105.901 37.5389 104.662 37.8211 103.887 38.3242C103.113 38.8273 102.725 39.599 102.723 40.6391C102.723 41.3917 102.949 41.9744 103.4 42.3871C103.852 42.7999 104.53 43.0071 105.435 43.0088M110.826 45.4517L110.102 43.1008H109.977C109.156 44.1293 108.33 44.8289 107.498 45.1994C106.666 45.5698 105.599 45.7538 104.295 45.7514C102.621 45.7514 101.314 45.3034 100.375 44.4074C99.4368 43.5114 98.9666 42.2442 98.965 40.6056C98.965 38.865 99.617 37.5517 100.921 36.6657C102.225 35.7797 104.212 35.2969 106.882 35.2173L109.823 35.1253V34.2252C109.823 33.1478 109.57 32.3409 109.062 31.8046C108.555 31.2684 107.767 31.0011 106.698 31.0028C105.846 30.9996 104.999 31.1288 104.188 31.3857C103.398 31.6352 102.626 31.9358 101.876 32.2858L100.706 29.721C101.666 29.2296 102.686 28.8623 103.74 28.6282C104.76 28.389 105.803 28.2639 106.851 28.2552C109.02 28.2552 110.656 28.7235 111.758 29.6601C112.861 30.5966 113.412 32.0678 113.413 34.0736V45.4492L110.826 45.4517Z" fill="#EB1F40"/>
<path d="M122.793 42.9764C123.692 42.9736 124.586 42.8348 125.443 42.5649V45.2665C124.945 45.4679 124.426 45.6138 123.896 45.7016C123.248 45.8204 122.59 45.8795 121.931 45.8782C118.502 45.8782 116.787 44.0862 116.786 40.5024V31.4019H114.462V29.813L116.955 28.5001L118.189 24.9283H120.422V28.6841H125.273V31.4019H120.422V40.4415C120.422 41.3068 120.64 41.9458 121.076 42.3586C121.512 42.7713 122.085 42.9785 122.793 42.9802" fill="#0058A2"/>
<path d="M135.343 28.3783C135.947 28.3668 136.551 28.4184 137.145 28.5324L136.794 31.8755C136.269 31.7524 135.732 31.691 135.192 31.6928C133.746 31.6928 132.572 32.1611 131.673 33.0976C130.774 34.0342 130.324 35.2505 130.325 36.7466V45.5736H126.706V28.6841H129.535L130.013 31.6617H130.199C130.727 30.6933 131.488 29.8696 132.414 29.2635C133.282 28.6861 134.304 28.378 135.349 28.3783" fill="#0058A2"/>
<path d="M143.015 43.1294C144.329 43.1294 145.384 42.7655 146.18 42.0378C146.976 41.3101 147.374 40.2894 147.374 38.9757V37.5099L145.186 37.6007C143.481 37.6628 142.241 37.9454 141.466 38.4485C140.691 38.9516 140.303 39.7229 140.302 40.7622C140.302 41.5156 140.529 42.0987 140.981 42.5115C141.433 42.9242 142.111 43.1314 143.015 43.1331M148.405 45.5761L147.683 43.2214H147.558C146.737 44.2499 145.91 44.9495 145.078 45.3199C144.246 45.6904 143.178 45.8761 141.874 45.8769C140.2 45.8769 138.893 45.4294 137.955 44.5342C137.016 43.6391 136.546 42.3718 136.544 40.7324C136.544 38.9918 137.196 37.6786 138.5 36.7925C139.804 35.9065 141.791 35.4229 144.46 35.3417L147.402 35.2497V34.3483C147.402 33.2708 147.148 32.4644 146.64 31.929C146.132 31.3936 145.344 31.1263 144.276 31.1271C143.424 31.1235 142.577 31.2527 141.765 31.51C140.976 31.7589 140.205 32.0591 139.455 32.4089L138.285 29.8441C139.246 29.353 140.265 28.9862 141.32 28.7525C142.34 28.5131 143.383 28.388 144.431 28.3795C146.601 28.3795 148.236 28.8478 149.336 29.7844C150.437 30.721 150.989 32.1921 150.992 34.1979V45.5736L148.405 45.5761Z" fill="#0058A2"/>
<path d="M160.283 42.9752C161.773 42.9752 162.857 42.5608 163.537 41.7319C164.217 40.9031 164.567 39.5567 164.585 37.6926V37.1891C164.585 35.0607 164.236 33.5493 163.537 32.655C162.839 31.7607 161.746 31.3123 160.257 31.3098C158.983 31.3098 158.002 31.8212 157.315 32.844C156.627 33.8668 156.283 35.3255 156.282 37.2202C156.282 39.0942 156.616 40.5214 157.283 41.5019C157.951 42.4824 158.952 42.9735 160.287 42.9752M159.313 45.8757C157.187 45.8757 155.529 45.1123 154.338 43.5856C153.148 42.0589 152.552 39.916 152.551 37.1568C152.551 34.3885 153.155 32.2335 154.361 30.6919C155.567 29.1503 157.239 28.3791 159.375 28.3783C161.612 28.3783 163.317 29.1975 164.489 30.8361H164.674C164.521 29.8866 164.433 28.928 164.411 27.9667V23.4712L168.04 21.8127V45.5723H165.207L164.581 43.3581H164.411C163.252 45.0365 161.553 45.8757 159.313 45.8757Z" fill="#0058A2"/>
<path d="M177.395 31.096C176.244 31.096 175.322 31.4574 174.63 32.1801C173.937 32.9029 173.524 33.9567 173.39 35.3417H181.123C181.101 33.9468 180.762 32.8904 180.105 32.1727C179.449 31.4549 178.545 31.096 177.395 31.096ZM178.057 45.8757C175.408 45.8757 173.337 45.1099 171.841 43.5782C170.346 42.0465 169.599 39.9367 169.601 37.2488C169.601 34.4905 170.294 32.3223 171.681 30.7442C173.068 29.1661 174.972 28.3787 177.395 28.382C179.647 28.382 181.424 29.0592 182.724 30.4135C184.024 31.7678 184.676 33.6327 184.68 36.0081V37.9475H173.328C173.379 39.5861 173.826 40.846 174.669 41.727C175.511 42.608 176.697 43.0482 178.227 43.0473C179.171 43.0541 180.113 42.9594 181.037 42.7651C181.998 42.5456 182.934 42.2312 183.832 41.8265V44.7319C182.981 45.1392 182.08 45.4367 181.153 45.6171C180.131 45.8003 179.095 45.8873 178.057 45.8769" fill="#0058A2"/>
<path d="M77.1805 33.7615C76.9902 33.6808 76.7772 33.6702 76.5798 33.7316C75.2181 34.1892 74.7437 35.0333 74.8702 36.2405C75.0867 38.3068 75.4258 39.1472 75.5698 39.6035C75.7462 40.158 76.4459 40.8219 77.1755 40.8219C77.7337 40.8219 78.5434 40.7498 79.8939 39.2952L93.5871 23.8926C93.5232 23.9461 93.5971 23.9038 93.5783 23.9038L93.5871 23.8926C92.6613 23.8581 91.7343 23.9114 90.8186 24.0518C90.2945 24.1591 89.7929 24.355 89.3356 24.6311C88.1391 25.3124 78.5935 36.519 78.3382 36.519C77.8964 36.519 77.785 35.4001 77.6799 34.6541C77.661 34.4062 77.5745 34.1681 77.4296 33.9654C77.3603 33.8824 77.2758 33.8132 77.1805 33.7615Z" fill="#0058A2"/>
</g>
<defs>
<clipPath id="clip0_25_196">
<rect width="202" height="69" fill="white"/>
</clipPath>
</defs>
</svg>
